<?xml version="1.0" standalone="no"?><!DOCTYPE svg PUBLIC "-//W3C//DTD SVG 1.1//EN" "http://www.w3.org/Graphics/SVG/1.1/DTD/svg11.dtd"><svg t="1650702891129" class="icon" viewBox="0 0 1024 1024" version="1.1" xmlns="http://www.w3.org/2000/svg" p-id="2882" xmlns:xlink="http://www.w3.org/1999/xlink" width="200" height="200"><defs><style type="text/css">@font-face { font-family: feedback-iconfont; src: url("//at.alicdn.com/t/font_1031158_u69w8yhxdu.woff2?t=1630033759944") format("woff2"), url("//at.alicdn.com/t/font_1031158_u69w8yhxdu.woff?t=1630033759944") format("woff"), url("//at.alicdn.com/t/font_1031158_u69w8yhxdu.ttf?t=1630033759944") format("truetype"); }
</style></defs><path d="M679.375 215.359L511.791 47.775 176.622 382.943c-17.183 17.183-17.183 45.043 0 62.226s45.043 17.183 62.226 0L511.79 172.225 784.734 445.17c17.183 17.183 45.043 17.183 62.226 0s17.183-45.043 0-62.226L679.375 215.36 846.96 382.943c17.183 17.183 17.183 45.043 0 62.226s-45.043 17.183-62.226 0L556.5 216.934v729.489c0 24.3-19.7 44-44 44s-44-19.7-44-44V215.516L238.848 445.17c-17.183 17.183-45.043 17.183-62.226 0s-17.183-45.043 0-62.226L511.791 47.775l167.584 167.584z" p-id="2883" fill="#8cbb19"></path><path d="M512.711 194.068L129.46 577.32c-17.573 17.573-46.066 17.573-63.64 0-17.573-17.574-17.573-46.066 0-63.64L512.712 66.79 959.603 513.68c17.573 17.574 17.573 46.066 0 63.64-17.574 17.573-46.066 17.573-63.64 0L512.711 194.068z" p-id="2884" fill="#8cbb19"></path></svg>