<?xml version="1.0" standalone="no"?><!DOCTYPE svg PUBLIC "-//W3C//DTD SVG 1.1//EN" "http://www.w3.org/Graphics/SVG/1.1/DTD/svg11.dtd"><svg t="1651158214130" class="icon" viewBox="0 0 1024 1024" version="1.1" xmlns="http://www.w3.org/2000/svg" p-id="4810" xmlns:xlink="http://www.w3.org/1999/xlink" width="200" height="200"><defs><style type="text/css">@font-face { font-family: feedback-iconfont; src: url("//at.alicdn.com/t/font_1031158_u69w8yhxdu.woff2?t=1630033759944") format("woff2"), url("//at.alicdn.com/t/font_1031158_u69w8yhxdu.woff?t=1630033759944") format("woff"), url("//at.alicdn.com/t/font_1031158_u69w8yhxdu.ttf?t=1630033759944") format("truetype"); }
</style></defs><path d="M315.480612 525.651233v42.225331a13.53376 13.53376 0 0 0 27.06752 0v-42.225331a13.53376 13.53376 0 0 0-27.06752 0zM667.358369 567.876564v-42.225331a13.53376 13.53376 0 0 0-27.06752 0v42.225331a13.53376 13.53376 0 0 0 27.06752 0z" p-id="4811"></path><path d="M965.101085 376.779874h-81.202559V178.10428a27.06752 27.06752 0 0 0-16.511187-24.902118l-351.877756-150.766085a27.06752 27.06752 0 0 0-21.383341 0L142.519161 153.472837a27.06752 27.06752 0 0 0-16.511187 24.902118v306.674998H58.339175a13.53376 13.53376 0 0 0-13.53376 13.53376v140.480428a13.53376 13.53376 0 0 0 7.578906 12.180383L126.007974 688.056351v158.074315a27.06752 27.06752 0 0 0 16.511187 24.902118l351.877757 150.766085a27.06752 27.06752 0 0 0 21.38334 0l259.848189-112.059531a13.777368 13.777368 0 0 0-5.142828-27.06752 24.902118 24.902118 0 0 0-4.872154 0L504.95325 996.896751 153.075494 846.130666V430.914914a13.263085 13.263085 0 0 0 7.30823-2.165402L285.706341 349.171004a13.53376 13.53376 0 0 0 6.225529-11.368358V247.938481l315.336605 154.555537a13.263085 13.263085 0 0 0 10.285657 0L856.831007 323.186185v406.012796a12.721734 12.721734 0 0 0 13.533759 12.180384 12.992409 12.992409 0 0 0 13.53376-12.180384v-27.06752h10.285658v73.894329H667.358369v-27.067519a27.06752 27.06752 0 0 0-27.06752-27.06752h-189.472638a27.06752 27.06752 0 0 0-27.06752 27.06752v81.202559a27.06752 27.06752 0 0 0 27.06752 27.067519h189.472638a27.06752 27.06752 0 0 0 27.06752-27.067519v-27.06752h240.359575a13.53376 13.53376 0 0 0 13.53376-13.53376v-94.736319a93.924293 93.924293 0 0 0 57.653817-87.969439v-216.540158a13.53376 13.53376 0 0 0-13.804436-13.53376zM71.872935 630.673209v-118.555736h54.135039v145.623256z m780.627268-334.554543L613.223329 375.697174l-329.953065-162.405119a13.53376 13.53376 0 0 0-19.488614 12.180384v104.209951L153.075494 401.140642V178.10428l351.877756-150.766085 351.877757 150.766085v117.743711a13.53376 13.53376 0 0 0-4.330804 0.270675zM640.290849 828.536779h-189.472638v-81.20256h189.472638z m311.276477-221.682987a65.503398 65.503398 0 0 1-67.6688 67.668799v-270.675197h67.6688z" p-id="4812"></path></svg>