<?xml version="1.0" standalone="no"?><!DOCTYPE svg PUBLIC "-//W3C//DTD SVG 1.1//EN" "http://www.w3.org/Graphics/SVG/1.1/DTD/svg11.dtd"><svg t="1651752617027" class="icon" viewBox="0 0 1024 1024" version="1.1" xmlns="http://www.w3.org/2000/svg" p-id="8043" xmlns:xlink="http://www.w3.org/1999/xlink" width="200" height="200"><defs><style type="text/css">@font-face { font-family: feedback-iconfont; src: url("//at.alicdn.com/t/font_1031158_u69w8yhxdu.woff2?t=1630033759944") format("woff2"), url("//at.alicdn.com/t/font_1031158_u69w8yhxdu.woff?t=1630033759944") format("woff"), url("//at.alicdn.com/t/font_1031158_u69w8yhxdu.ttf?t=1630033759944") format("truetype"); }
</style></defs><path d="M893.842 217.557H130.159c-16.261 0-29.443 13.182-29.443 29.443v530c0 16.261 13.182 29.443 29.443 29.443h763.683c16.261 0 29.443-13.183 29.443-29.443V247c0-16.261-13.182-29.443-29.443-29.443z m-85.584 58.886L512 507.651 215.742 276.443h592.516zM159.602 747.557v-440.23l334.283 260.885A29.4 29.4 0 0 0 512 574.443a29.4 29.4 0 0 0 18.115-6.231l334.283-260.884v440.229H159.602z" fill="#8cbb19" p-id="8044"></path></svg>